<?xml version="1.0" ?><svg height="56.693px" version="1.1" viewBox="0 0 24 24" width="56.693px" xmlns="http://www.w3.org/2000/svg" xmlns:sketch="http://www.bohemiancoding.com/sketch/ns" xmlns:xlink="http://www.w3.org/1999/xlink">
<title/><desc/><defs/><g fill="none" fill-rule="evenodd" id="miu" stroke="none" stroke-width="1">
<g id="Artboard-1" transform="translate(-755.000000, -659.000000)">
<g id="slice" transform="translate(215.000000, 119.000000)"/><path d="M767,682 C773.075133,682 778,677.075133 778,671 C778,664.924867 773.075133,660 767,660 C760.924867,660 756,664.924867 756,671 C756,677.075133 760.924867,682 767,682 Z M761.778872,667 L772.221128,667 L767,671.362053 L761.778872,667 Z M773,667.650854 L773,674.295797 L769.013034,670.973326 L773,667.650854 Z M772.284983,675 L761.715017,675 L765.761828,671.619044 L767,672.650854 L768.238172,671.619044 L772.284983,675 Z M761,674.295797 L761,667.650854 L764.986966,670.973326 L761,674.295797 Z" fill="#000000" id="circle-social-email-glyph"/></g></g></svg>