<?xml version="1.0" ?><svg height="56.6934px" id="Layer_1" style="enable-background:new 0 0 56.6934 56.6934;" version="1.1" viewBox="0 0 56.6934 56.6934" width="56.6934px" xml:space="preserve" xmlns="http://www.w3.org/2000/svg" xmlns:xlink="http://www.w3.org/1999/xlink"><path d="M29.2066,4.3736c-13.5996,0-24.625,11.0234-24.625,24.623s11.0254,24.625,24.625,24.625  c13.5986,0,24.624-11.0254,24.624-24.625S42.8052,4.3736,29.2066,4.3736z M37.6303,15.7298c0.0751,0,0.1469,0.0298,0.2,0.0828  l1.7148,1.7151c0.1105,0.1105,0.1105,0.2894,0,0.3999L29.5025,27.9703c-0.0552,0.0552-0.1276,0.0829-0.2,0.0829  c-0.0724,0-0.1447-0.0276-0.2-0.0829l-5.025-5.0247c-0.053-0.053-0.0828-0.1248-0.0828-0.2s0.0298-0.1469,0.0828-0.2l1.7151-1.7148  c0.1105-0.1105,0.2894-0.1105,0.3999,0l3.1099,3.1099l8.1279-8.1282C37.4834,15.7596,37.5552,15.7298,37.6303,15.7298z   M15.0907,38.0558V24.8356c0-0.2104,0.0384-0.4281,0.1171-0.6656c0.0001-0.0003,0.0004-0.0005,0.0005-0.0009  c0.1445-0.4337,0.4081-0.7977,0.7621-1.0533l11.9944-8.6548c0.7424-0.5358,1.74-0.5358,2.4824,0l4.3768,3.1582l-0.8102,0.8103  l-4.2283-3.051c-0.3469-0.2502-0.812-0.2502-1.1589,0L16.6323,24.033c-0.0457,0.033-0.0803,0.0797-0.1194,0.1211l12.399,7.5494  l-13.0703,7.9581C15.3861,39.2722,15.0907,38.7007,15.0907,38.0558z M43.3215,38.0558c0,1.1696-0.9517,2.1211-2.1214,2.1211H17.2118  c-0.2987,0-0.5823-0.0635-0.8403-0.1754L41.8117,24.512c0.1144-0.0696,0.1562-0.2065,0.1163-0.3286  c-0.009-0.0104-0.0194-0.0191-0.0287-0.0291c-0.0392-0.0416-0.074-0.0883-0.1199-0.1215l-0.0515-0.0372l-4.3279-3.1228  l0.8102-0.8103l4.2312,3.053c0.3549,0.2562,0.6182,0.6207,0.7625,1.0541c0.0001,0.0002,0.0003,0.0004,0.0004,0.0006  c0.079,0.2381,0.1174,0.4557,0.1174,0.6653V38.0558z"/></svg>
