<?xml version="1.0" ?><!DOCTYPE svg  PUBLIC '-//W3C//DTD SVG 1.1//EN'  'http://www.w3.org/Graphics/SVG/1.1/DTD/svg11.dtd'><svg enable-background="new 0 0 56.693 56.693" height="56.693px" id="Layer_1" version="1.1" viewBox="0 0 56.693 56.693" width="56.693px" xml:space="preserve" xmlns="http://www.w3.org/2000/svg" xmlns:xlink="http://www.w3.org/1999/xlink"><g><path d="M33.977,29.739c-0.658-0.43-1.469-0.799-2.404-1.098c-0.926-0.297-1.971-0.572-3.109-0.814   c-0.898-0.209-1.555-0.369-1.945-0.477c-0.383-0.105-0.764-0.254-1.133-0.441c-0.355-0.178-0.639-0.391-0.838-0.637   c-0.189-0.23-0.281-0.498-0.281-0.818c0-0.52,0.285-0.963,0.873-1.348c0.607-0.398,1.428-0.602,2.436-0.602   c1.086,0,1.875,0.184,2.35,0.545c0.484,0.369,0.91,0.895,1.262,1.561c0.303,0.52,0.574,0.885,0.838,1.115   c0.283,0.252,0.691,0.379,1.211,0.379c0.574,0,1.061-0.203,1.445-0.604c0.383-0.396,0.576-0.854,0.576-1.357   c0-0.521-0.148-1.062-0.439-1.604c-0.289-0.539-0.75-1.055-1.367-1.537c-0.613-0.481-1.396-0.87-2.322-1.161   c-0.922-0.285-2.025-0.432-3.283-0.432c-1.57,0-2.959,0.221-4.125,0.652c-1.184,0.438-2.102,1.075-2.73,1.895   c-0.633,0.826-0.955,1.783-0.955,2.846c0,1.115,0.306,2.062,0.912,2.82c0.594,0.742,1.406,1.336,2.414,1.766   c0.986,0.42,2.227,0.789,3.686,1.104c1.074,0.225,1.941,0.439,2.58,0.639c0.613,0.191,1.119,0.471,1.5,0.828   c0.365,0.342,0.545,0.779,0.545,1.334c0,0.703-0.34,1.275-1.041,1.754c-0.717,0.49-1.67,0.738-2.834,0.738   c-0.844,0-1.533-0.123-2.043-0.363c-0.506-0.24-0.902-0.547-1.178-0.914c-0.287-0.379-0.559-0.859-0.809-1.43   c-0.223-0.523-0.5-0.932-0.824-1.205c-0.338-0.287-0.756-0.432-1.238-0.432c-0.59,0-1.082,0.184-1.469,0.547   c-0.389,0.363-0.586,0.812-0.586,1.328c0,0.822,0.304,1.68,0.9,2.539c0.592,0.854,1.37,1.545,2.315,2.055   c1.322,0.701,3.016,1.059,5.035,1.059c1.684,0,3.162-0.262,4.395-0.773c1.246-0.52,2.207-1.248,2.857-2.166   c0.654-0.928,0.984-1.982,0.984-3.141c0-0.967-0.191-1.801-0.572-2.477C35.184,30.741,34.65,30.177,33.977,29.739z"/><path d="M28.346,5.157c-13.599,0-24.624,11.027-24.624,24.625c0,13.6,11.024,24.623,24.624,24.623   c13.602,0,24.625-11.023,24.625-24.623C52.971,16.184,41.947,5.157,28.346,5.157z M34.367,45.104c-1.393,0-2.707-0.352-3.854-0.969   c-0.836,0.152-1.695,0.234-2.574,0.234c-7.768,0-14.064-6.297-14.064-14.062c0-0.969,0.097-1.914,0.284-2.828   c-0.711-1.211-1.121-2.619-1.121-4.125c0-4.504,3.65-8.157,8.155-8.157c1.598,0,3.082,0.461,4.34,1.254   c0.781-0.137,1.586-0.207,2.406-0.207c7.766,0,14.062,6.297,14.062,14.063c0,1.035-0.113,2.045-0.326,3.018   c0.543,1.092,0.85,2.32,0.85,3.623C42.525,41.452,38.873,45.104,34.367,45.104z"/></g></svg>