<?xml version="1.0" ?><svg height="56.6934px" id="Layer_1" style="enable-background:new 0 0 56.6934 56.6934;" version="1.1" viewBox="0 0 56.6934 56.6934" width="56.6934px" xml:space="preserve" xmlns="http://www.w3.org/2000/svg" xmlns:xlink="http://www.w3.org/1999/xlink"><g><path d="M29.7518,16.1734c-6.7766,0-12.2879,5.5108-12.2905,12.2844c-0.001,2.3214,0.6486,4.5821,1.8783,6.5381l0.2922,0.4648   l-1.2411,4.5334l4.6498-1.2197l0.4485,0.2662c1.8863,1.1193,4.0485,1.7116,6.2529,1.7125h0.005   c6.7715,0,12.2826-5.5113,12.2853-12.2855c0.0013-3.2826-1.2754-6.3693-3.5948-8.6915   C36.1179,17.4541,33.0332,16.1744,29.7518,16.1734z M36.9781,33.7399c-0.3077,0.8626-1.7833,1.65-2.4929,1.756   c-0.6364,0.0952-1.4415,0.1348-2.3262-0.1463c-0.5364-0.1702-1.2243-0.3975-2.1055-0.778   c-3.7049-1.5998-6.1246-5.3301-6.3092-5.5767c-0.1846-0.2464-1.5081-2.0026-1.5081-3.8206c0-1.8177,0.9542-2.7113,1.2927-3.0811   c0.3384-0.3696,0.7386-0.4621,0.9848-0.4621c0.2462,0,0.4927,0.0023,0.7078,0.013c0.2267,0.0115,0.5312-0.0861,0.8311,0.634   c0.3077,0.7396,1.0463,2.5575,1.1387,2.7424c0.0924,0.1848,0.1539,0.4005,0.0308,0.647c-0.1231,0.2463-0.1846,0.4005-0.3693,0.6161   c-0.1846,0.2157-0.3879,0.4815-0.554,0.647c-0.1849,0.1842-0.3774,0.3841-0.162,0.7537c0.2155,0.3699,0.9567,1.5792,2.0547,2.5586   c1.4106,1.2582,2.6007,1.6482,2.97,1.8331c0.3693,0.185,0.5848,0.1539,0.8002-0.0924c0.2155-0.2465,0.9233-1.0785,1.1695-1.4482   c0.2462-0.3696,0.4924-0.308,0.8309-0.1848c0.3385,0.1234,2.1544,1.0167,2.5237,1.2015c0.3693,0.1849,0.6155,0.2774,0.7078,0.4315   C37.2859,32.1375,37.2859,32.877,36.9781,33.7399z"/><path d="M29.2066,4.3736c-13.5996,0-24.625,11.0234-24.625,24.623s11.0254,24.625,24.625,24.625   c13.5986,0,24.624-11.0254,24.624-24.625S42.8052,4.3736,29.2066,4.3736z M29.747,43.2496   C29.7465,43.2496,29.7473,43.2496,29.747,43.2496h-0.0061c-2.4738-0.0009-4.9047-0.6216-7.0635-1.7991l-7.8357,2.0554l2.097-7.6594   c-1.2935-2.2416-1.9741-4.7843-1.973-7.3895c0.0032-8.1496,6.6341-14.78,14.7812-14.78c3.954,0.0016,7.6653,1.5409,10.4559,4.3348   c2.7907,2.7938,4.3268,6.5074,4.3253,10.457C44.5246,36.6185,37.8933,43.2496,29.747,43.2496z"/></g></svg>